<svg width="16" height="16" viewBox="0 0 16 16" fill="none" xmlns="http://www.w3.org/2000/svg">
<path d="M0.643555 7.6543C0.643555 8.19922 1.0918 8.63867 1.62793 8.63867H7.01562V14.0264C7.01562 14.5625 7.46387 15.0107 8 15.0107C8.53613 15.0107 8.98438 14.5625 8.98438 14.0264V8.63867H14.3721C14.9082 8.63867 15.3564 8.19922 15.3564 7.6543C15.3564 7.11816 14.9082 6.66992 14.3721 6.66992H8.98438V1.28223C8.98438 0.746094 8.53613 0.297852 8 0.297852C7.46387 0.297852 7.01562 0.746094 7.01562 1.28223V6.66992H1.62793C1.0918 6.66992 0.643555 7.11816 0.643555 7.6543Z" fill="#007AFF"/>
</svg>
